<?xml version="1.0" standalone="no"?>
<!DOCTYPE svg PUBLIC "-//W3C//DTD SVG 20010904//EN"
 "http://www.w3.org/TR/2001/REC-SVG-20010904/DTD/svg10.dtd">
<svg version="1.0" xmlns="http://www.w3.org/2000/svg"
 width="500.000000pt" height="500.000000pt" viewBox="0 0 500.000000 500.000000"
 preserveAspectRatio="xMidYMid meet">

<g transform="translate(0.000000,500.000000) scale(0.100000,-0.100000)"
fill="#000000" stroke="none">
<path d="M2300 4990 c-614 -61 -1141 -305 -1559 -721 -351 -349 -590 -791
-685 -1266 -39 -194 -50 -298 -50 -498 0 -332 52 -612 169 -913 268 -684 819
-1211 1523 -1456 426 -148 922 -172 1378 -66 374 87 770 291 1058 545 658 578
964 1419 830 2278 -66 424 -253 842 -530 1183 -87 107 -270 290 -369 369 -257
205 -573 367 -893 459 -248 72 -634 110 -872 86z m617 -264 c531 -78 1037
-358 1384 -765 575 -674 706 -1618 334 -2408 -291 -616 -824 -1061 -1470
-1226 -205 -53 -308 -68 -520 -74 -436 -13 -788 57 -1131 227 -386 190 -715
491 -937 856 -557 914 -383 2107 411 2827 366 332 848 542 1322 576 165 12
480 5 607 -13z"/>
<path d="M2270 4704 c-578 -91 -1091 -395 -1444 -853 -153 -199 -294 -478
-365 -722 -155 -535 -110 -1087 128 -1594 178 -378 499 -730 858 -941 578
-341 1203 -405 1808 -187 770 278 1325 956 1446 1768 27 182 29 457 4 630
-114 794 -631 1457 -1370 1759 -131 53 -249 88 -416 122 -160 33 -496 42 -649
18z m310 -264 c26 -14 41 -71 29 -114 -11 -40 -26 -54 -67 -62 -81 -16 -114
118 -43 173 20 15 56 16 81 3z m-292 -16 c36 -10 20 -29 -22 -26 -48 5 -66
-11 -66 -57 1 -66 47 -91 98 -55 34 24 41 6 9 -22 -56 -48 -123 -16 -134 65
-5 35 -2 44 25 71 31 30 48 35 90 24z m527 -46 c10 -29 21 -57 25 -61 4 -5 25
12 46 37 42 51 54 56 54 25 0 -39 -32 -159 -42 -159 -11 0 -6 68 8 105 5 13
-6 7 -31 -17 -22 -21 -43 -34 -47 -30 -4 4 -14 25 -21 47 l-14 40 -17 -57 c-9
-32 -21 -58 -26 -58 -6 0 -10 5 -10 10 0 10 27 129 36 158 8 26 23 10 39 -40z
m-978 -147 c44 -66 20 -141 -45 -143 -72 -2 -118 97 -72 155 18 23 29 28 58
25 28 -2 41 -10 59 -37z m1536 -17 c-1 -10 -5 -50 -8 -89 -4 -38 -9 -73 -11
-77 -12 -20 -24 -4 -24 31 0 33 -4 40 -29 51 -25 10 -34 9 -53 -4 -12 -9 -29
-16 -36 -16 -22 0 2 26 78 82 67 49 86 54 83 22z m-1813 -75 c0 -6 -10 -19
-22 -29 l-22 -18 42 -62 c23 -35 42 -67 42 -72 0 -23 -24 -2 -63 56 -39 59
-44 63 -62 50 -22 -17 -38 -18 -33 -4 4 12 99 89 111 89 4 1 7 -4 7 -10z
m1044 -21 c3 -18 8 -49 11 -69 3 -21 30 -72 65 -122 33 -47 69 -106 79 -130
15 -35 27 -47 54 -56 36 -12 110 -83 121 -117 4 -10 29 -29 56 -42 27 -13 59
-37 71 -54 28 -38 36 -112 17 -157 -14 -34 -14 -34 34 -82 41 -41 48 -54 48
-88 0 -58 -15 -87 -59 -118 l-39 -28 -62 -245 c-35 -135 -69 -255 -76 -267
-24 -39 -74 -44 -414 -41 -304 3 -320 4 -339 23 -14 14 -37 88 -76 245 -37
152 -60 228 -71 235 -115 70 -137 187 -55 291 16 20 19 35 15 72 -6 54 19 105
61 124 21 9 25 18 25 52 0 73 58 137 138 152 27 5 32 11 32 34 0 54 39 94 172
175 25 15 35 30 41 60 20 96 31 121 64 152 46 44 80 44 87 1z m967 -83 c-6
-32 -9 -60 -7 -62 2 -2 28 5 57 17 61 23 69 24 69 11 0 -17 -101 -131 -116
-131 -22 0 -17 11 28 57 l41 42 -51 -16 c-28 -9 -54 -14 -57 -11 -4 3 -2 29 3
57 l9 51 -39 -45 c-22 -25 -44 -45 -49 -45 -19 0 -8 23 32 65 23 25 48 54 57
66 24 35 35 9 23 -56z m-2188 -139 c55 -62 71 -92 45 -84 -16 6 -118 125 -118
138 0 21 19 7 73 -54z m2475 -63 c30 -26 34 -54 13 -89 -22 -36 -83 -68 -112
-59 -28 9 -59 45 -59 69 2 74 104 125 158 79z m-2668 -43 c-24 -34 -25 -46 -3
-58 12 -7 22 -3 39 17 29 34 42 21 15 -17 l-20 -29 22 -21 22 -21 23 35 c26
41 51 37 26 -4 -40 -68 -40 -68 -76 -39 -18 15 -50 41 -71 60 l-38 33 31 42
c17 24 35 40 41 37 5 -4 1 -18 -11 -35z m2841 -201 c17 -34 19 -47 10 -65 -13
-29 -55 -32 -83 -7 -17 15 -18 15 -18 -10 0 -34 -18 -80 -28 -73 -5 3 -5 27
-1 53 12 76 13 75 -21 58 -34 -17 -40 -18 -40 -6 0 9 137 90 152 91 4 0 17
-19 29 -41z m-2971 16 c0 -4 -7 -19 -15 -35 -14 -27 -14 -30 7 -44 21 -15 23
-14 36 9 13 26 32 34 32 13 0 -7 -5 -20 -10 -28 -7 -11 -2 -21 22 -41 17 -14
27 -29 21 -32 -11 -7 -153 73 -153 87 0 14 41 76 51 76 5 0 9 -2 9 -5z m2380
-196 c0 -26 3 -30 18 -24 40 17 51 16 61 -3 8 -16 6 -25 -11 -47 -22 -28 -119
-95 -138 -95 -6 0 -10 29 -10 74 0 108 22 156 62 135 11 -6 18 -21 18 -40z
m-1766 -61 c8 -18 17 -64 21 -101 7 -69 7 -69 -17 -62 -42 13 -127 66 -148 92
-15 20 -17 29 -9 39 14 17 43 18 70 4 17 -9 19 -7 19 18 0 34 6 42 32 42 12 0
24 -12 32 -32z m-715 -993 c49 -25 55 -79 16 -131 -32 -42 -116 -74 -195 -74
l-59 0 -16 -52 c-30 -104 -9 -217 48 -247 39 -21 90 -7 126 34 52 59 53 156 3
163 -33 5 -49 -13 -57 -63 -7 -48 -12 -52 -38 -32 -26 20 -30 59 -8 94 35 56
124 61 164 11 9 -13 24 -32 32 -43 19 -25 19 -95 0 -121 -14 -19 -14 -19 -15
1 0 14 -8 7 -27 -23 -32 -49 -91 -82 -147 -82 -96 0 -186 98 -186 204 0 29 20
118 35 157 4 12 -3 20 -25 29 -75 31 -107 78 -89 130 14 38 35 39 44 1 6 -29
43 -70 80 -89 18 -9 27 -3 70 45 77 88 176 124 244 88z m2477 -9 c27 -13 67
-43 88 -67 44 -50 79 -120 67 -132 -4 -4 -6 -19 -3 -33 4 -20 7 -23 14 -12 6
8 8 -10 4 -54 -5 -66 -30 -133 -65 -172 -23 -26 -94 -61 -99 -48 -2 6 -10 8
-18 5 -7 -3 -11 -9 -8 -14 7 -12 -43 -11 -90 2 -34 9 -41 8 -62 -12 -32 -30
-109 -37 -153 -15 -56 30 -67 95 -20 125 21 12 75 17 109 9 9 -2 25 33 50 112
42 131 68 186 102 216 34 31 53 35 71 13 15 -17 14 -21 -8 -61 -14 -24 -25
-37 -25 -30 0 6 -4 12 -10 12 -13 0 -13 -27 -1 -32 9 -3 -26 -175 -48 -240
-14 -41 -4 -50 40 -38 125 35 172 291 73 397 -34 36 -34 36 -103 31 -109 -8
-177 -62 -189 -150 -4 -33 -1 -44 13 -55 11 -7 15 -13 9 -14 -5 0 0 -4 11 -9
18 -7 19 -8 2 -15 -21 -9 -73 11 -98 39 -29 31 -25 93 10 147 66 104 222 148
337 95z m-876 -86 c34 -35 37 -61 11 -109 l-18 -34 36 -32 35 -32 -13 -68 c-6
-37 -10 -70 -7 -73 3 -3 21 29 40 70 37 82 82 128 125 128 24 0 51 -20 60 -45
2 -5 14 -23 26 -39 l22 -28 23 32 c22 31 22 31 41 11 11 -11 19 -29 19 -40 0
-21 -53 -71 -75 -71 -7 0 -18 -15 -25 -34 -6 -18 -20 -42 -31 -52 -29 -26 -96
-27 -137 -2 -30 18 -35 19 -50 5 -10 -9 -37 -17 -60 -18 -65 -4 -87 23 -85
104 l1 62 -18 -45 c-11 -25 -22 -66 -26 -92 -4 -28 -12 -48 -19 -48 -7 0 -29
11 -50 25 -35 24 -39 25 -55 10 -11 -10 -20 -13 -24 -6 -5 7 -14 7 -31 -1 -67
-31 -105 26 -87 131 12 72 9 85 -12 55 -9 -11 -10 -21 -5 -25 6 -4 2 -30 -10
-67 -12 -34 -21 -72 -21 -86 0 -14 -4 -28 -10 -31 -11 -7 -61 17 -79 39 -11
13 -15 12 -33 -6 -16 -16 -22 -18 -29 -7 -6 11 -11 11 -21 1 -18 -18 -75 -15
-95 6 -17 16 -19 16 -40 -8 -19 -21 -22 -22 -23 -7 0 14 -4 16 -19 7 -35 -18
-68 -11 -95 21 -14 17 -26 38 -26 47 0 14 -2 15 -10 2 -6 -9 -5 -17 3 -22 9
-5 9 -10 -1 -20 -9 -9 -12 -9 -12 1 0 8 -12 2 -31 -13 -40 -34 -83 -34 -105
-1 -14 21 -16 41 -10 108 l6 82 -21 -25 c-18 -21 -19 -26 -6 -28 13 -3 12 -11
-6 -65 -11 -34 -22 -69 -24 -77 -4 -13 -5 -13 -13 0 -8 13 -10 12 -10 -2 0
-11 -8 -18 -18 -18 -26 0 -62 37 -62 63 0 18 -4 16 -25 -14 -37 -56 -90 -67
-122 -25 l-19 24 -23 -24 c-48 -50 -131 -16 -145 59 -21 114 106 246 172 179
16 -16 19 -16 44 -2 25 14 28 13 47 -7 20 -21 20 -24 5 -94 -8 -40 -14 -82
-12 -93 3 -18 7 -15 29 19 14 22 34 63 44 90 28 78 81 118 104 78 9 -16 12
-16 49 5 50 28 62 28 95 -1 32 -27 35 -66 12 -141 -8 -27 -13 -51 -11 -53 10
-10 62 97 77 157 l17 65 -29 14 c-42 20 -37 41 9 41 30 1 41 6 57 32 11 17 30
35 42 39 19 7 25 3 38 -22 9 -16 13 -34 10 -39 -3 -6 3 -10 15 -10 23 0 50
-21 50 -39 0 -6 -18 -11 -40 -11 -50 0 -59 -18 -67 -141 -9 -134 10 -125 67
33 20 54 49 88 76 88 6 0 21 -9 34 -20 20 -17 21 -23 11 -51 -6 -18 -11 -59
-11 -92 0 -54 1 -58 17 -46 9 8 35 55 59 105 35 76 47 93 70 98 20 5 31 3 40
-8 15 -21 21 -20 51 4 36 28 67 25 97 -11 31 -36 30 -34 10 -111 -8 -33 -14
-64 -12 -70 7 -21 58 92 74 165 22 99 61 176 103 204 45 31 66 29 101 -7z
m-565 -64 c26 -22 27 -28 17 -50 -16 -36 -54 -43 -92 -16 -35 25 -38 42 -10
70 26 26 51 25 85 -4z m-1258 -87 c-8 -21 -13 -26 -15 -14 -5 21 5 45 17 45 5
0 4 -13 -2 -31z m66 24 c-7 -2 -21 -2 -30 0 -10 3 -4 5 12 5 17 0 24 -2 18 -5z
m2967 -36 c0 -7 -6 -19 -12 -26 -11 -10 -10 -11 3 -6 16 6 69 -36 69 -55 0
-21 19 -9 39 25 24 42 75 75 115 75 52 0 110 -74 75 -96 -6 -3 -15 0 -20 7 -5
8 -9 10 -9 4 0 -5 -7 -2 -14 8 -13 17 -15 16 -35 -9 -29 -37 -31 -144 -2 -144
27 0 78 62 92 112 16 61 76 118 123 118 63 0 94 -50 61 -98 -13 -18 -13 -21
-2 -16 8 3 19 15 25 27 l11 22 0 -22 c1 -25 -41 -62 -81 -70 -22 -4 -28 -11
-29 -32 0 -24 -1 -24 -10 -6 -8 18 -8 18 -6 -5 1 -19 8 -26 30 -28 35 -4 76
37 112 114 15 32 32 54 42 54 41 0 -35 -154 -97 -196 -23 -16 -49 -24 -76 -24
-35 0 -47 6 -72 34 -30 35 -30 35 -49 14 -62 -69 -154 -62 -192 15 l-20 40
-15 -34 c-10 -24 -15 -28 -15 -15 -1 17 -7 14 -35 -17 -44 -49 -93 -51 -137
-8 -75 75 -3 249 104 251 16 0 27 -5 27 -13z m-1946 -51 c-10 -8 -21 -12 -23
-10 -3 2 4 11 15 18 10 8 21 12 23 10 3 -2 -4 -11 -15 -18z m-479 -175 c3 -5
1 -12 -5 -16 -5 -3 -10 1 -10 9 0 18 6 21 15 7z m1189 -301 c14 -5 32 -22 40
-38 13 -25 13 -32 1 -49 -8 -11 -23 -23 -34 -26 -17 -4 -20 0 -19 27 2 44 -8
56 -41 56 -36 0 -51 -32 -51 -106 0 -46 4 -59 26 -80 27 -28 63 -27 97 3 22
21 32 11 17 -17 -18 -34 -73 -53 -119 -40 -58 15 -84 50 -89 119 -5 69 14 112
61 141 35 22 72 25 111 10z m267 -16 c25 -23 24 -59 -3 -78 -32 -23 -40 -20
-33 12 11 54 -57 72 -82 22 -15 -30 -17 -108 -4 -143 14 -37 50 -45 73 -17 27
33 23 50 -12 50 -16 0 -30 4 -30 8 0 32 77 44 104 16 11 -10 16 -34 16 -70 0
-51 -1 -54 -25 -54 -14 0 -28 7 -31 15 -5 12 -11 11 -34 -7 -74 -55 -157 41
-136 156 7 39 48 93 80 107 30 13 94 4 117 -17z m-1054 -499 c12 -8 43 -49 68
-90 44 -70 50 -76 98 -90 69 -20 74 -19 43 10 -34 32 -50 73 -35 91 23 28 53
15 119 -55 87 -92 105 -101 194 -108 76 -6 107 -23 41 -23 -21 0 -65 -15 -105
-35 -77 -39 -104 -42 -155 -20 -61 25 -57 58 8 81 l32 11 -50 8 c-35 6 -67 3
-111 -9 -77 -20 -105 -20 -150 -1 -51 21 -43 49 21 70 20 7 20 7 0 14 -10 4
-46 2 -79 -5 -89 -18 -148 0 -132 41 7 20 105 20 160 0 22 -8 43 -12 48 -9 4
3 14 2 21 -3 15 -10 37 -13 37 -5 0 18 -67 105 -91 117 -52 27 -46 -18 10 -78
15 -17 19 -26 10 -22 -33 12 -78 93 -64 115 9 15 37 12 62 -5z m1703 -20 c0
-26 -28 -72 -57 -96 l-28 -22 25 7 c80 21 126 26 157 15 18 -6 33 -17 33 -24
0 -35 -86 -46 -159 -20 -25 9 -50 11 -63 6 -20 -7 -20 -8 10 -19 36 -12 51
-37 33 -55 -9 -9 -11 -8 -5 7 10 26 -12 36 -85 36 -68 0 -74 -7 -19 -20 31 -8
30 -8 -17 -10 -41 -2 -45 -3 -25 -10 14 -4 50 -9 80 -10 53 -2 54 -2 23 -12
-26 -9 -47 -6 -115 15 -49 15 -94 23 -111 20 -28 -6 -48 -23 -26 -23 17 0 49
-30 49 -47 0 -18 -59 -43 -100 -43 -33 0 -67 15 -126 55 -24 16 -51 25 -75 25
-22 0 -39 5 -39 10 0 6 30 10 69 10 38 0 82 5 98 11 15 6 60 42 100 80 60 58
77 70 100 67 45 -5 43 -47 -3 -94 l-38 -37 30 7 c95 23 101 26 134 73 56 81
91 113 122 113 19 0 28 -5 28 -15z m-1658 -89 c10 -19 10 -20 -6 -7 -9 8 -22
24 -28 35 -10 19 -10 20 6 7 9 -8 22 -24 28 -35z m909 -14 c47 -39 14 -124
-78 -200 l-44 -35 -37 30 c-57 46 -102 110 -102 145 0 66 69 91 115 43 22 -25
24 -25 37 -7 30 43 73 52 109 24z"/>
<path d="M2513 4415 c-30 -21 -39 -69 -19 -100 32 -49 96 -18 96 45 0 29 -25
70 -43 70 -7 0 -22 -7 -34 -15z"/>
<path d="M1746 4234 c-36 -35 -5 -124 44 -124 26 0 50 27 50 55 0 27 -45 85
-65 85 -8 0 -21 -7 -29 -16z"/>
<path d="M3320 4179 c-21 -16 -23 -20 -10 -29 8 -5 18 -10 21 -10 6 0 20 52
15 57 -1 1 -12 -7 -26 -18z"/>
<path d="M2517 4040 c-3 -14 -8 -45 -11 -69 -6 -59 -31 -90 -102 -128 -66 -35
-114 -83 -114 -113 0 -23 -4 -22 79 -10 120 17 190 94 176 194 -17 136 -21
152 -28 126z m-87 -254 c0 -16 -18 -31 -27 -22 -8 8 5 36 17 36 5 0 10 -6 10
-14z"/>
<path d="M2550 4041 c0 -11 9 -48 20 -83 11 -34 20 -74 20 -88 -1 -66 -72
-156 -142 -179 -18 -6 -79 -17 -135 -25 -142 -21 -193 -52 -193 -117 0 -44 32
-63 116 -67 190 -10 397 73 462 183 37 64 27 108 -50 223 -36 53 -71 114 -77
135 -14 41 -21 47 -21 18z m120 -231 c0 -10 -6 -23 -14 -29 -11 -9 -15 -5 -18
24 -2 20 -2 38 1 40 8 9 31 -17 31 -35z m-231 -234 c10 -11 7 -17 -11 -30 -12
-9 -30 -16 -40 -16 -27 0 -23 39 5 50 30 12 33 12 46 -4z"/>
<path d="M2760 3687 c0 -8 -14 -35 -32 -62 -62 -93 -212 -163 -402 -187 -81
-10 -102 -9 -165 6 -66 16 -74 16 -96 2 -31 -20 -42 -60 -25 -91 7 -13 36 -34
64 -47 46 -21 64 -23 201 -22 119 1 167 6 230 22 170 46 321 147 347 234 10
35 9 45 -8 76 -29 55 -114 106 -114 69z m75 -79 c15 -29 17 -43 10 -64 -16
-44 -35 -42 -35 3 0 21 -7 49 -16 61 -16 23 -11 46 9 39 7 -2 21 -20 32 -39z
m-225 -204 c0 -16 -65 -48 -80 -39 -18 11 -10 35 13 45 36 14 67 12 67 -6z
m-423 -27 c7 -12 -16 -27 -45 -27 -29 0 -64 18 -57 30 7 11 94 9 102 -3z"/>
<path d="M2925 3510 c-28 -63 -122 -145 -217 -190 -142 -67 -228 -85 -413 -85
-148 0 -164 2 -214 24 l-54 25 -18 -23 c-10 -13 -24 -41 -31 -63 -10 -35 -9
-45 8 -76 10 -20 35 -47 54 -60 32 -22 43 -24 126 -19 98 4 161 26 249 87 93
64 180 92 378 119 113 16 197 64 233 133 30 57 7 120 -56 153 -27 14 -28 14
-45 -25z m51 -45 c7 -17 -12 -45 -31 -45 -22 0 -28 33 -9 47 23 17 33 16 40
-2z m-716 -315 c0 -22 -34 -44 -56 -36 -19 7 -18 33 4 45 28 17 52 13 52 -9z"/>
<path d="M3010 3280 c-50 -42 -121 -66 -235 -80 -112 -13 -208 -40 -278 -78
l-48 -26 38 -38 c30 -31 44 -38 76 -38 35 0 46 7 97 60 32 33 66 60 76 60 11
0 46 -12 79 -26 119 -50 248 -35 288 33 24 42 16 79 -26 127 l-32 36 -35 -30z
m1 -86 c11 -14 10 -18 -6 -30 -42 -31 -85 -5 -45 28 27 22 34 22 51 2z m-413
-81 c2 -12 -4 -23 -13 -27 -32 -12 -48 17 -23 42 17 17 32 10 36 -15z"/>
<path d="M2401 2913 c0 -16 7 -75 14 -133 l12 -105 2 86 c1 99 -8 179 -20 179
-5 0 -9 -12 -8 -27z"/>
<path d="M2806 2918 c-8 -39 -26 -190 -25 -212 1 -22 48 186 49 217 0 25 -19
21 -24 -5z"/>
<path d="M2270 2913 c1 -26 48 -261 49 -243 0 8 -6 69 -14 135 -8 65 -15 121
-15 122 0 2 -4 3 -10 3 -5 0 -10 -8 -10 -17z"/>
<path d="M2541 2750 l2 -185 9 174 c5 116 5 178 -2 185 -7 7 -10 -50 -9 -174z"/>
<path d="M2666 2838 c-11 -156 -5 -209 9 -88 16 128 18 180 6 180 -4 0 -11
-41 -15 -92z"/>
<path d="M2926 2828 c-28 -156 -27 -167 3 -58 31 109 37 150 22 150 -5 0 -16
-42 -25 -92z"/>
<path d="M2127 2903 c-2 -5 9 -53 24 -108 31 -114 37 -103 12 27 -15 80 -25
101 -36 81z"/>
<path d="M2772 2655 c0 -16 2 -22 5 -12 2 9 2 23 0 30 -3 6 -5 -1 -5 -18z"/>
<path d="M2433 2630 c0 -25 2 -35 4 -22 2 12 2 32 0 45 -2 12 -4 2 -4 -23z"/>
<path d="M2891 2644 c0 -11 3 -14 6 -6 3 7 2 16 -1 19 -3 4 -6 -2 -5 -13z"/>
<path d="M3780 3823 c-45 -17 -66 -73 -38 -101 28 -28 99 3 113 49 12 38 -31
68 -75 52z"/>
<path d="M3973 3587 c-30 -13 -29 -33 2 -53 27 -18 45 -12 45 15 0 32 -22 50
-47 38z"/>
<path d="M874 2323 c-29 -6 -95 -63 -118 -103 l-19 -33 60 5 c76 7 140 39 149
75 12 46 -16 68 -72 56z m-84 -104 c-7 -11 -14 -18 -17 -15 -8 8 5 36 17 36 7
0 7 -6 0 -21z"/>
<path d="M3148 1869 c-10 -5 -18 -14 -18 -19 0 -17 26 -11 45 10 20 22 4 28
-27 9z"/>
<path d="M2463 2071 c-18 -15 -33 -36 -33 -47 1 -18 1 -18 12 1 6 11 22 32 36
48 33 35 26 34 -15 -2z"/>
<path d="M2765 2050 c-10 -11 -14 -20 -9 -20 5 0 15 9 22 20 7 11 11 20 9 20
-2 0 -12 -9 -22 -20z"/>
<path d="M1135 2050 c-3 -6 1 -7 9 -4 18 7 21 14 7 14 -6 0 -13 -4 -16 -10z"/>
<path d="M1140 1998 c-11 -24 -20 -60 -20 -82 0 -33 2 -37 15 -26 15 13 45 99
45 132 0 32 -20 19 -40 -24z"/>
<path d="M2750 1966 c-12 -38 -7 -86 10 -86 9 0 40 52 40 67 0 4 -9 19 -19 32
l-18 24 -13 -37z"/>
<path d="M4183 2058 c-16 -21 -23 -48 -12 -48 23 0 49 22 49 40 0 22 -22 27
-37 8z"/>
<path d="M3727 2053 c-4 -3 -7 -11 -7 -17 0 -6 5 -5 12 2 6 6 9 14 7 17 -3 3
-9 2 -12 -2z"/>
<path d="M3952 2035 c-7 -14 -11 -45 -11 -68 l2 -42 6 45 c4 25 12 55 19 68 7
12 9 22 4 22 -5 0 -14 -11 -20 -25z"/>
<path d="M3720 1976 c-25 -68 0 -132 28 -71 16 34 15 56 -3 79 -14 18 -15 18
-25 -8z"/>
<path d="M1936 972 c-25 -24 16 -82 79 -112 67 -33 72 -16 15 50 -46 53 -81
76 -94 62z m133 -119 c2 -2 -1 -3 -7 -3 -7 0 -26 14 -44 31 l-33 31 40 -28
c22 -16 42 -29 44 -31z"/>
<path d="M1565 939 c-11 -16 0 -21 56 -27 37 -3 50 -2 45 7 -5 7 1 11 16 12
23 1 23 1 -2 9 -37 12 -108 12 -115 -1z"/>
<path d="M1727 873 c-29 -28 38 -59 106 -48 68 12 79 24 22 26 l-50 2 40 6 40
6 -34 8 c-42 9 -115 9 -124 0z"/>
<path d="M2003 798 c-33 -16 -28 -37 13 -54 38 -16 79 -12 124 12 22 12 18 13
-45 9 -74 -5 -51 3 60 20 43 7 47 9 25 16 -38 11 -152 9 -177 -3z"/>
<path d="M3366 1006 c-31 -35 -80 -111 -56 -89 7 6 18 9 25 7 17 -7 105 77
105 99 0 29 -40 19 -74 -17z m14 -29 c0 -2 -12 -14 -27 -28 l-28 -24 24 28
c23 25 31 32 31 24z"/>
<path d="M3100 922 c-50 -48 -59 -60 -45 -66 40 -15 151 62 143 100 -7 36 -36
25 -98 -34z m50 -7 c0 -7 -73 -55 -84 -55 -5 0 9 13 30 29 37 28 54 36 54 26z"/>
<path d="M3469 921 c11 -7 7 -10 -15 -13 -25 -3 -22 -5 18 -12 26 -5 59 -5 74
-2 43 11 22 31 -37 34 -36 2 -49 -1 -40 -7z"/>
<path d="M2936 811 c5 -6 43 -17 84 -25 72 -15 73 -16 18 -11 -31 3 -65 8 -75
11 -16 5 -16 4 2 -10 37 -31 90 -41 131 -25 48 18 53 34 15 53 -33 18 -192 23
-175 7z"/>
<path d="M3181 4646 c2 -2 49 -21 104 -41 556 -206 1026 -646 1268 -1188 451
-1011 97 -2205 -833 -2806 -100 -65 -293 -166 -373 -196 -26 -10 -46 -20 -43
-22 2 -2 46 12 97 32 712 275 1239 910 1383 1667 41 214 46 549 12 748 -54
316 -175 636 -333 875 -285 432 -675 730 -1177 901 -99 34 -113 38 -105 30z"/>
<path d="M1710 4581 c-291 -109 -540 -271 -776 -506 -218 -216 -360 -423 -480
-699 -328 -758 -198 -1662 329 -2293 195 -233 424 -419 687 -556 105 -55 309
-140 365 -152 17 -3 -10 10 -59 30 -529 212 -949 599 -1196 1100 -98 200 -157
385 -207 649 -21 112 -29 473 -13 606 76 660 447 1258 1006 1623 102 67 249
144 364 192 108 45 95 49 -20 6z"/>
</g>
</svg>
